{
	"accessors" : 
	[
		{
			"bufferView" : 2,
			"byteOffset" : 0,
			"componentType" : 5126,
			"count" : 3900,
			"max" : 
			[
				1,
				0.835527777671814,
				0.6661169528961182,
				1
			],
			"min" : 
			[
				0,
				0.4368127584457397,
				0.03994716703891754,
				1
			],
			"name" : "accessor_color_m0-PolyPaper9_-160230",
			"type" : "VEC4"
		},
		{
			"bufferView" : 2,
			"byteOffset" : 62400,
			"componentType" : 5126,
			"count" : 9992,
			"max" : 
			[
				1,
				1,
				1,
				1
			],
			"min" : 
			[
				0,
				0.006584956776350737,
				0.006584956776350737,
				1
			],
			"name" : "accessor_color_m1-PolyPaper9_-160228",
			"type" : "VEC4"
		},
		{
			"bufferView" : 0,
			"byteOffset" : 0,
			"componentType" : 5123,
			"count" : 5622,
			"max" : 
			[
				3899
			],
			"min" : 
			[
				0
			],
			"name" : "accessor_indices_0_m0-PolyPaper9_-160230",
			"type" : "SCALAR"
		},
		{
			"bufferView" : 0,
			"byteOffset" : 11244,
			"componentType" : 5123,
			"count" : 14052,
			"max" : 
			[
				9991
			],
			"min" : 
			[
				0
			],
			"name" : "accessor_indices_0_m1-PolyPaper9_-160228",
			"type" : "SCALAR"
		},
		{
			"bufferView" : 1,
			"byteOffset" : 46800,
			"componentType" : 5126,
			"count" : 3900,
			"max" : 
			[
				0.9996705,
				0.9995327000000001,
				0.9994011
			],
			"min" : 
			[
				-0.999987,
				-0.9995326,
				-0.9999118
			],
			"name" : "accessor_normal_m0-PolyPaper9_-160230",
			"type" : "VEC3"
		},
		{
			"bufferView" : 1,
			"byteOffset" : 213504,
			"componentType" : 5126,
			"count" : 9992,
			"max" : 
			[
				0.9988043,
				0.9995334,
				0.999972
			],
			"min" : 
			[
				-0.9988043,
				-0.9995334,
				-0.9999721
			],
			"name" : "accessor_normal_m1-PolyPaper9_-160228",
			"type" : "VEC3"
		},
		{
			"bufferView" : 1,
			"byteOffset" : 0,
			"componentType" : 5126,
			"count" : 3900,
			"max" : 
			[
				0.831046,
				1.193666,
				-0.08993023999999999
			],
			"min" : 
			[
				-0.1869292,
				0.2059637,
				-1.370572
			],
			"name" : "accessor_position_m0-PolyPaper9_-160230",
			"type" : "VEC3"
		},
		{
			"bufferView" : 1,
			"byteOffset" : 93600,
			"componentType" : 5126,
			"count" : 9992,
			"max" : 
			[
				0.8140216,
				1.745671,
				-0.2229658
			],
			"min" : 
			[
				0.1678788,
				0.3393769,
				-1.343745
			],
			"name" : "accessor_position_m1-PolyPaper9_-160228",
			"type" : "VEC3"
		}
	],
	"asset" : 
	{
		"copyright" : "Unknown",
		"generator" : "glTF 1-to-2 Upgrader for Google Blocks",
		"version" : "2.0"
	},
	"bufferViews" : 
	[
		{
			"buffer" : 0,
			"byteLength" : 39348,
			"byteOffset" : 0,
			"name" : "ushortBufferView",
			"target" : 34963
		},
		{
			"buffer" : 0,
			"byteLength" : 333408,
			"byteOffset" : 39348,
			"byteStride" : 12,
			"name" : "vec3BufferView",
			"target" : 34962
		},
		{
			"buffer" : 0,
			"byteLength" : 222272,
			"byteOffset" : 372756,
			"byteStride" : 16,
			"name" : "vec4BufferView",
			"target" : 34962
		}
	],
	"buffers" : 
	[
		{
			"byteLength" : 595028,
			"name" : "model",
			"uri" : "data:application/octet-stream;base64,"
		}
	],
	"materials" : 
	[
		{
			"alphaMode" : "OPAQUE",
			"doubleSided" : false,
			"name" : "BlocksPaper",
			"pbrMetallicRoughness" : 
			{
				"baseColorFactor" : 
				[
					1,
					1,
					1,
					1
				],
				"metallicFactor" : 0,
				"roughnessFactor" : 0.6
			}
		},
		{
			"alphaMode" : "BLEND",
			"doubleSided" : false,
			"name" : "BlocksGlass",
			"pbrMetallicRoughness" : 
			{
				"baseColorFactor" : 
				[
					0.2,
					0.2,
					1,
					0.3
				],
				"metallicFactor" : 1,
				"roughnessFactor" : 0.4
			}
		},
		{
			"alphaMode" : "OPAQUE",
			"doubleSided" : true,
			"name" : "BlocksGem",
			"pbrMetallicRoughness" : 
			{
				"baseColorFactor" : 
				[
					1,
					0.4,
					1,
					1
				],
				"metallicFactor" : 0,
				"roughnessFactor" : 0.1
			}
		}
	],
	"meshes" : 
	[
		{
			"name" : "mesh_m0-PolyPaper9_-160230",
			"primitives" : 
			[
				{
					"attributes" : 
					{
						"COLOR_0" : 0,
						"NORMAL" : 4,
						"POSITION" : 6
					},
					"indices" : 2,
					"material" : 0,
					"mode" : 4
				}
			]
		},
		{
			"name" : "mesh_m1-PolyPaper9_-160228",
			"primitives" : 
			[
				{
					"attributes" : 
					{
						"COLOR_0" : 1,
						"NORMAL" : 5,
						"POSITION" : 7
					},
					"indices" : 3,
					"material" : 0,
					"mode" : 4
				}
			]
		}
	],
	"nodes" : 
	[
		{
			"matrix" : 
			[
				1,
				0,
				0,
				0,
				0,
				1,
				0,
				0,
				0,
				0,
				1,
				0,
				0,
				0,
				0,
				1
			],
			"mesh" : 0,
			"name" : "node_MeshObject-426379968-PolyPaper9"
		},
		{
			"matrix" : 
			[
				1,
				0,
				0,
				0,
				0,
				1,
				0,
				0,
				0,
				0,
				1,
				0,
				0,
				0,
				0,
				1
			],
			"mesh" : 1,
			"name" : "node_MeshObject1315610176-PolyPaper9"
		}
	],
	"scene" : 0,
	"scenes" : 
	[
		{
			"extras" : {},
			"name" : "defaultScene",
			"nodes" : 
			[
				0,
				1
			]
		}
	]
}