{
  "accessors" : 
  [
    {
      "bufferView" : 2,
      "byteOffset" : 0,
      "componentType" : 5126,
      "count" : 6810,
      "max" : 
      [
        1,
        1,
        1,
        1
      ],
      "min" : 
      [
        0,
        0.0384727455675602,
        0,
        1
      ],
      "name" : "accessor_color_m0-PolyPaper9_-879154",
      "type" : "VEC4"
    },
    {
      "bufferView" : 2,
      "byteOffset" : 108960,
      "componentType" : 5126,
      "count" : 9968,
      "max" : 
      [
        1,
        0.6120656132698059,
        0.5859730243682861,
        1
      ],
      "min" : 
      [
        0,
        0.08919350802898407,
        0.06190747767686844,
        1
      ],
      "name" : "accessor_color_m1-PolyPaper10_-733450",
      "type" : "VEC4"
    },
    {
      "bufferView" : 2,
      "byteOffset" : 268448,
      "componentType" : 5126,
      "count" : 9974,
      "max" : 
      [
        1,
        0.6940805315971375,
        0.7226724624633789,
        1
      ],
      "min" : 
      [
        0.05637409910559654,
        0.05284162983298302,
        0.0328759141266346,
        1
      ],
      "name" : "accessor_color_m2-PolyPaper20_-878358",
      "type" : "VEC4"
    },
    {
      "bufferView" : 0,
      "byteOffset" : 0,
      "componentType" : 5123,
      "count" : 8244,
      "max" : 
      [
        6809
      ],
      "min" : 
      [
        0
      ],
      "name" : "accessor_indices_0_m0-PolyPaper9_-879154",
      "type" : "SCALAR"
    },
    {
      "bufferView" : 0,
      "byteOffset" : 16488,
      "componentType" : 5123,
      "count" : 12324,
      "max" : 
      [
        9967
      ],
      "min" : 
      [
        0
      ],
      "name" : "accessor_indices_0_m1-PolyPaper10_-733450",
      "type" : "SCALAR"
    },
    {
      "bufferView" : 0,
      "byteOffset" : 41136,
      "componentType" : 5123,
      "count" : 12252,
      "max" : 
      [
        9973
      ],
      "min" : 
      [
        0
      ],
      "name" : "accessor_indices_0_m2-PolyPaper20_-878358",
      "type" : "SCALAR"
    },
    {
      "bufferView" : 1,
      "byteOffset" : 81720,
      "componentType" : 5126,
      "count" : 6810,
      "max" : 
      [
        0.9999441999999999,
        0.9999710000000001,
        0.9994385
      ],
      "min" : 
      [
        -0.999931,
        -0.9991943,
        -0.998952
      ],
      "name" : "accessor_normal_m0-PolyPaper9_-879154",
      "type" : "VEC3"
    },
    {
      "bufferView" : 1,
      "byteOffset" : 283056,
      "componentType" : 5126,
      "count" : 9968,
      "max" : 
      [
        0.9995298,
        0.9993576,
        0.998952
      ],
      "min" : 
      [
        -0.9995293,
        -0.9998286,
        -0.999752
      ],
      "name" : "accessor_normal_m1-PolyPaper10_-733450",
      "type" : "VEC3"
    },
    {
      "bufferView" : 1,
      "byteOffset" : 522360,
      "componentType" : 5126,
      "count" : 9974,
      "max" : 
      [
        0.9999975,
        0.9997585,
        0.998462
      ],
      "min" : 
      [
        -0.9999975,
        -0.9998857,
        -0.9998996999999999
      ],
      "name" : "accessor_normal_m2-PolyPaper20_-878358",
      "type" : "VEC3"
    },
    {
      "bufferView" : 1,
      "byteOffset" : 0,
      "componentType" : 5126,
      "count" : 6810,
      "max" : 
      [
        2.879267,
        2.974585,
        0.6297720999999999
      ],
      "min" : 
      [
        -0.6670202,
        -3.467657,
        -2.89856
      ],
      "name" : "accessor_position_m0-PolyPaper9_-879154",
      "type" : "VEC3"
    },
    {
      "bufferView" : 1,
      "byteOffset" : 163440,
      "componentType" : 5126,
      "count" : 9968,
      "max" : 
      [
        2.420037,
        3.359025,
        -0.005190804
      ],
      "min" : 
      [
        0.03155551,
        0.6529552,
        -2.618079
      ],
      "name" : "accessor_position_m1-PolyPaper10_-733450",
      "type" : "VEC3"
    },
    {
      "bufferView" : 1,
      "byteOffset" : 402672,
      "componentType" : 5126,
      "count" : 9974,
      "max" : 
      [
        2.763851,
        2.175988,
        -0.4339329
      ],
      "min" : 
      [
        0.2795319,
        0.7200354,
        -2.466985
      ],
      "name" : "accessor_position_m2-PolyPaper20_-878358",
      "type" : "VEC3"
    }
  ],
  "asset" : 
  {
    "copyright" : "Unknown",
    "generator" : "glTF 1-to-2 Upgrader for Google Blocks",
    "version" : "2.0"
  },
  "bufferViews" : 
  [
    {
      "buffer" : 0,
      "byteLength" : 65640,
      "byteOffset" : 0,
      "name" : "ushortBufferView",
      "target" : 34963
    },
    {
      "buffer" : 0,
      "byteLength" : 642048,
      "byteOffset" : 65640,
      "byteStride" : 12,
      "name" : "vec3BufferView",
      "target" : 34962
    },
    {
      "buffer" : 0,
      "byteLength" : 428032,
      "byteOffset" : 707688,
      "byteStride" : 16,
      "name" : "vec4BufferView",
      "target" : 34962
    }
  ],
  "buffers" : 
  [
    {
      "byteLength" : 1135720,
      "name" : "model",
      "uri" : "data:application/octet-stream;base64,"
    }
  ],
  "materials" : 
  [
    {
      "alphaMode" : "OPAQUE",
      "doubleSided" : false,
      "name" : "BlocksPaper",
      "pbrMetallicRoughness" : 
      {
        "baseColorFactor" : 
        [
          1,
          1,
          1,
          1
        ],
        "metallicFactor" : 0,
        "roughnessFactor" : 0.6
      }
    },
    {
      "alphaMode" : "BLEND",
      "doubleSided" : false,
      "name" : "BlocksGlass",
      "pbrMetallicRoughness" : 
      {
        "baseColorFactor" : 
        [
          0.2,
          0.2,
          1,
          0.3
        ],
        "metallicFactor" : 1,
        "roughnessFactor" : 0.4
      }
    },
    {
      "alphaMode" : "OPAQUE",
      "doubleSided" : true,
      "name" : "BlocksGem",
      "pbrMetallicRoughness" : 
      {
        "baseColorFactor" : 
        [
          1,
          0.4,
          1,
          1
        ],
        "metallicFactor" : 0,
        "roughnessFactor" : 0.1
      }
    }
  ],
  "meshes" : 
  [
    {
      "name" : "mesh_m0-PolyPaper9_-879154",
      "primitives" : 
      [
        {
          "attributes" : 
          {
            "COLOR_0" : 0,
            "NORMAL" : 6,
            "POSITION" : 9
          },
          "indices" : 3,
          "material" : 0,
          "mode" : 4
        }
      ]
    },
    {
      "name" : "mesh_m1-PolyPaper10_-733450",
      "primitives" : 
      [
        {
          "attributes" : 
          {
            "COLOR_0" : 1,
            "NORMAL" : 7,
            "POSITION" : 10
          },
          "indices" : 4,
          "material" : 0,
          "mode" : 4
        }
      ]
    },
    {
      "name" : "mesh_m2-PolyPaper20_-878358",
      "primitives" : 
      [
        {
          "attributes" : 
          {
            "COLOR_0" : 2,
            "NORMAL" : 8,
            "POSITION" : 11
          },
          "indices" : 5,
          "material" : 0,
          "mode" : 4
        }
      ]
    }
  ],
  "nodes" : 
  [
    {
      "matrix" : 
      [
        1,
        0,
        0,
        0,
        0,
        1,
        0,
        0,
        0,
        0,
        1,
        0,
        0,
        0,
        0,
        1
      ],
      "mesh" : 0,
      "name" : "node_MeshObject-1406650304-PolyPaper9"
    },
    {
      "matrix" : 
      [
        1,
        0,
        0,
        0,
        0,
        1,
        0,
        0,
        0,
        0,
        1,
        0,
        0,
        0,
        0,
        1
      ],
      "mesh" : 2,
      "name" : "node_MeshObject-1925370368-PolyPaper20"
    },
    {
      "matrix" : 
      [
        1,
        0,
        0,
        0,
        0,
        1,
        0,
        0,
        0,
        0,
        1,
        0,
        0,
        0,
        0,
        1
      ],
      "mesh" : 1,
      "name" : "node_MeshObject512802048-PolyPaper10"
    }
  ],
  "scene" : 0,
  "scenes" : 
  [
    {
      "extras" : {},
      "name" : "defaultScene",
      "nodes" : 
      [
        0,
        2,
        1
      ]
    }
  ]
}