{
	"accessors" : 
	[
		{
			"bufferView" : 2,
			"byteOffset" : 0,
			"componentType" : 5126,
			"count" : 9924,
			"max" : 
			[
				1,
				1,
				1,
				1
			],
			"min" : 
			[
				0,
				0.006584956776350737,
				0.006584956776350737,
				1
			],
			"name" : "accessor_color_m0-PolyPaper11_-409964",
			"type" : "VEC4"
		},
		{
			"bufferView" : 2,
			"byteOffset" : 158784,
			"componentType" : 5126,
			"count" : 4356,
			"max" : 
			[
				1,
				1,
				1,
				1
			],
			"min" : 
			[
				0,
				0.006584956776350737,
				0.006584956776350737,
				1
			],
			"name" : "accessor_color_m1-PolyPaper23_-411796",
			"type" : "VEC4"
		},
		{
			"bufferView" : 2,
			"byteOffset" : 228480,
			"componentType" : 5126,
			"count" : 9998,
			"max" : 
			[
				1,
				1,
				1,
				1
			],
			"min" : 
			[
				0,
				0.006584956776350737,
				0.006584956776350737,
				1
			],
			"name" : "accessor_color_m2-PolyPaper9_-411776",
			"type" : "VEC4"
		},
		{
			"bufferView" : 2,
			"byteOffset" : 388448,
			"componentType" : 5126,
			"count" : 9980,
			"max" : 
			[
				1,
				1,
				1,
				1
			],
			"min" : 
			[
				0,
				0.006584956776350737,
				0,
				1
			],
			"name" : "accessor_color_m3-PolyPaper9_-406744",
			"type" : "VEC4"
		},
		{
			"bufferView" : 2,
			"byteOffset" : 548128,
			"componentType" : 5126,
			"count" : 2508,
			"max" : 
			[
				0.6800203323364258,
				0.6800203323364258,
				0.6800203323364258,
				0.2509804
			],
			"min" : 
			[
				0.6800203323364258,
				0.6800203323364258,
				0.6800203323364258,
				0.2509804
			],
			"name" : "accessor_color_m4-PolyGlass24_-409974",
			"type" : "VEC4"
		},
		{
			"bufferView" : 0,
			"byteOffset" : 0,
			"componentType" : 5123,
			"count" : 14700,
			"max" : 
			[
				9923
			],
			"min" : 
			[
				0
			],
			"name" : "accessor_indices_0_m0-PolyPaper11_-409964",
			"type" : "SCALAR"
		},
		{
			"bufferView" : 0,
			"byteOffset" : 29400,
			"componentType" : 5123,
			"count" : 6648,
			"max" : 
			[
				4355
			],
			"min" : 
			[
				0
			],
			"name" : "accessor_indices_0_m1-PolyPaper23_-411796",
			"type" : "SCALAR"
		},
		{
			"bufferView" : 0,
			"byteOffset" : 42696,
			"componentType" : 5123,
			"count" : 14766,
			"max" : 
			[
				9997
			],
			"min" : 
			[
				0
			],
			"name" : "accessor_indices_0_m2-PolyPaper9_-411776",
			"type" : "SCALAR"
		},
		{
			"bufferView" : 0,
			"byteOffset" : 72228,
			"componentType" : 5123,
			"count" : 14910,
			"max" : 
			[
				9979
			],
			"min" : 
			[
				0
			],
			"name" : "accessor_indices_0_m3-PolyPaper9_-406744",
			"type" : "SCALAR"
		},
		{
			"bufferView" : 0,
			"byteOffset" : 102048,
			"componentType" : 5123,
			"count" : 3708,
			"max" : 
			[
				2507
			],
			"min" : 
			[
				0
			],
			"name" : "accessor_indices_0_m4-PolyGlass24_-409974",
			"type" : "SCALAR"
		},
		{
			"bufferView" : 1,
			"byteOffset" : 119088,
			"componentType" : 5126,
			"count" : 9924,
			"max" : 
			[
				1,
				1,
				1
			],
			"min" : 
			[
				-1,
				-1,
				-1
			],
			"name" : "accessor_normal_m0-PolyPaper11_-409964",
			"type" : "VEC3"
		},
		{
			"bufferView" : 1,
			"byteOffset" : 290448,
			"componentType" : 5126,
			"count" : 4356,
			"max" : 
			[
				1,
				1,
				1
			],
			"min" : 
			[
				-1,
				-1,
				-1
			],
			"name" : "accessor_normal_m1-PolyPaper23_-411796",
			"type" : "VEC3"
		},
		{
			"bufferView" : 1,
			"byteOffset" : 462696,
			"componentType" : 5126,
			"count" : 9998,
			"max" : 
			[
				1,
				1,
				1
			],
			"min" : 
			[
				-1,
				-1,
				-1
			],
			"name" : "accessor_normal_m2-PolyPaper9_-411776",
			"type" : "VEC3"
		},
		{
			"bufferView" : 1,
			"byteOffset" : 702432,
			"componentType" : 5126,
			"count" : 9980,
			"max" : 
			[
				1,
				1,
				1
			],
			"min" : 
			[
				-1,
				-1,
				-1
			],
			"name" : "accessor_normal_m3-PolyPaper9_-406744",
			"type" : "VEC3"
		},
		{
			"bufferView" : 1,
			"byteOffset" : 852288,
			"componentType" : 5126,
			"count" : 2508,
			"max" : 
			[
				1,
				1,
				1
			],
			"min" : 
			[
				-1,
				-1,
				-1
			],
			"name" : "accessor_normal_m4-PolyGlass24_-409974",
			"type" : "VEC3"
		},
		{
			"bufferView" : 1,
			"byteOffset" : 0,
			"componentType" : 5126,
			"count" : 9924,
			"max" : 
			[
				4.203746,
				-3.074195,
				4.638285
			],
			"min" : 
			[
				-4.71998,
				-4.996745,
				-3.630039
			],
			"name" : "accessor_position_m0-PolyPaper11_-409964",
			"type" : "VEC3"
		},
		{
			"bufferView" : 1,
			"byteOffset" : 238176,
			"componentType" : 5126,
			"count" : 4356,
			"max" : 
			[
				4.79002,
				-2.938444,
				4.894003
			],
			"min" : 
			[
				-4.855938,
				-4.939984,
				-4.860008
			],
			"name" : "accessor_position_m1-PolyPaper23_-411796",
			"type" : "VEC3"
		},
		{
			"bufferView" : 1,
			"byteOffset" : 342720,
			"componentType" : 5126,
			"count" : 9998,
			"max" : 
			[
				4.173091,
				-2.387826,
				3.219109
			],
			"min" : 
			[
				-4.603539,
				-4.990016,
				-3.605174
			],
			"name" : "accessor_position_m2-PolyPaper9_-411776",
			"type" : "VEC3"
		},
		{
			"bufferView" : 1,
			"byteOffset" : 582672,
			"componentType" : 5126,
			"count" : 9980,
			"max" : 
			[
				4.29201,
				-2.945731,
				4.586642
			],
			"min" : 
			[
				-4.752274,
				-4.946115,
				-4.770843
			],
			"name" : "accessor_position_m3-PolyPaper9_-406744",
			"type" : "VEC3"
		},
		{
			"bufferView" : 1,
			"byteOffset" : 822192,
			"componentType" : 5126,
			"count" : 2508,
			"max" : 
			[
				4.319236,
				-3.779967,
				4.710917
			],
			"min" : 
			[
				-4.303029,
				-4.979383,
				-2.480032
			],
			"name" : "accessor_position_m4-PolyGlass24_-409974",
			"type" : "VEC3"
		}
	],
	"asset" : 
	{
		"copyright" : "Unknown",
		"generator" : "glTF 1-to-2 Upgrader for Google Blocks",
		"version" : "2.0"
	},
	"bufferViews" : 
	[
		{
			"buffer" : 0,
			"byteLength" : 109464,
			"byteOffset" : 0,
			"name" : "ushortBufferView",
			"target" : 34963
		},
		{
			"buffer" : 0,
			"byteLength" : 882384,
			"byteOffset" : 109464,
			"byteStride" : 12,
			"name" : "vec3BufferView",
			"target" : 34962
		},
		{
			"buffer" : 0,
			"byteLength" : 588256,
			"byteOffset" : 991848,
			"byteStride" : 16,
			"name" : "vec4BufferView",
			"target" : 34962
		}
	],
	"buffers" : 
	[
		{
			"byteLength" : 1580104,
			"name" : "model",
			"uri" : "data:application/octet-stream;base64,"
		}
	],
	"materials" : 
	[
		{
			"alphaMode" : "OPAQUE",
			"doubleSided" : false,
			"name" : "BlocksPaper",
			"pbrMetallicRoughness" : 
			{
				"baseColorFactor" : 
				[
					1,
					1,
					1,
					1
				],
				"metallicFactor" : 0,
				"roughnessFactor" : 0.6
			}
		},
		{
			"alphaMode" : "BLEND",
			"doubleSided" : false,
			"name" : "BlocksGlass",
			"pbrMetallicRoughness" : 
			{
				"baseColorFactor" : 
				[
					0.2,
					0.2,
					1,
					0.3
				],
				"metallicFactor" : 1,
				"roughnessFactor" : 0.4
			}
		},
		{
			"alphaMode" : "OPAQUE",
			"doubleSided" : true,
			"name" : "BlocksGem",
			"pbrMetallicRoughness" : 
			{
				"baseColorFactor" : 
				[
					1,
					0.4,
					1,
					1
				],
				"metallicFactor" : 0,
				"roughnessFactor" : 0.1
			}
		}
	],
	"meshes" : 
	[
		{
			"name" : "mesh_m0-PolyPaper11_-409964",
			"primitives" : 
			[
				{
					"attributes" : 
					{
						"COLOR_0" : 0,
						"NORMAL" : 10,
						"POSITION" : 15
					},
					"indices" : 5,
					"material" : 0,
					"mode" : 4
				}
			]
		},
		{
			"name" : "mesh_m1-PolyPaper23_-411796",
			"primitives" : 
			[
				{
					"attributes" : 
					{
						"COLOR_0" : 1,
						"NORMAL" : 11,
						"POSITION" : 16
					},
					"indices" : 6,
					"material" : 0,
					"mode" : 4
				}
			]
		},
		{
			"name" : "mesh_m2-PolyPaper9_-411776",
			"primitives" : 
			[
				{
					"attributes" : 
					{
						"COLOR_0" : 2,
						"NORMAL" : 12,
						"POSITION" : 17
					},
					"indices" : 7,
					"material" : 0,
					"mode" : 4
				}
			]
		},
		{
			"name" : "mesh_m3-PolyPaper9_-406744",
			"primitives" : 
			[
				{
					"attributes" : 
					{
						"COLOR_0" : 3,
						"NORMAL" : 13,
						"POSITION" : 18
					},
					"indices" : 8,
					"material" : 0,
					"mode" : 4
				}
			]
		},
		{
			"name" : "mesh_m4-PolyGlass24_-409974",
			"primitives" : 
			[
				{
					"attributes" : 
					{
						"COLOR_0" : 4,
						"NORMAL" : 14,
						"POSITION" : 19
					},
					"indices" : 9,
					"material" : 1,
					"mode" : 4
				}
			]
		}
	],
	"nodes" : 
	[
		{
			"matrix" : 
			[
				1,
				0,
				0,
				0,
				0,
				1,
				0,
				0,
				0,
				0,
				1,
				0,
				0,
				0,
				0,
				1
			],
			"mesh" : 3,
			"name" : "node_MeshObject-480558592-PolyPaper9"
		},
		{
			"matrix" : 
			[
				1,
				0,
				0,
				0,
				0,
				1,
				0,
				0,
				0,
				0,
				1,
				0,
				0,
				0,
				0,
				1
			],
			"mesh" : 1,
			"name" : "node_MeshObject-750071424-PolyPaper23"
		},
		{
			"matrix" : 
			[
				1,
				0,
				0,
				0,
				0,
				1,
				0,
				0,
				0,
				0,
				1,
				0,
				0,
				0,
				0,
				1
			],
			"mesh" : 0,
			"name" : "node_MeshObject1075601600-PolyPaper11"
		},
		{
			"matrix" : 
			[
				1,
				0,
				0,
				0,
				0,
				1,
				0,
				0,
				0,
				0,
				1,
				0,
				0,
				0,
				0,
				1
			],
			"mesh" : 2,
			"name" : "node_MeshObject1513674368-PolyPaper9"
		},
		{
			"matrix" : 
			[
				1,
				0,
				0,
				0,
				0,
				1,
				0,
				0,
				0,
				0,
				1,
				0,
				0,
				0,
				0,
				1
			],
			"mesh" : 4,
			"name" : "node_MeshObject556881536-PolyGlass24"
		}
	],
	"scene" : 0,
	"scenes" : 
	[
		{
			"extras" : {},
			"name" : "defaultScene",
			"nodes" : 
			[
				2,
				1,
				3,
				0,
				4
			]
		}
	]
}